<?xml version="1.0" encoding="utf-8"?>
<!-- Generator: Adobe Illustrator 16.0.0, SVG Export Plug-In . SVG Version: 6.00 Build 0)  -->
<!DOCTYPE svg PUBLIC "-//W3C//DTD SVG 1.1//EN" "http://www.w3.org/Graphics/SVG/1.1/DTD/svg11.dtd">
<svg version="1.1" id="Capa_1" xmlns="http://www.w3.org/2000/svg" xmlns:xlink="http://www.w3.org/1999/xlink" x="0px" y="0px"
	 width="139px" height="44px" viewBox="0 57 139 44" enable-background="new 0 57 139 44" xml:space="preserve">
<g>
	<g>
		<g>
			<path fill="#FFFFFF" d="M15.853,90.342c-0.154-0.152-0.23-0.35-0.23-0.592V68.377c0-0.242,0.076-0.443,0.23-0.609
				c0.152-0.164,0.352-0.246,0.592-0.246h4.514c0.24,0,0.443,0.082,0.607,0.246c0.166,0.166,0.249,0.367,0.249,0.609v7.805h7.771
				v-7.805c0-0.242,0.081-0.443,0.245-0.609c0.166-0.164,0.37-0.246,0.611-0.246h4.478c0.242,0,0.445,0.082,0.61,0.246
				c0.163,0.166,0.246,0.367,0.246,0.609V89.75c0,0.242-0.083,0.438-0.246,0.592c-0.165,0.154-0.368,0.23-0.61,0.23h-4.478
				c-0.241,0-0.445-0.076-0.611-0.23c-0.164-0.152-0.245-0.35-0.245-0.592v-8.068h-7.771v8.068c0,0.242-0.083,0.438-0.249,0.592
				c-0.164,0.154-0.367,0.23-0.607,0.23h-4.514C16.204,90.572,16.005,90.496,15.853,90.342z"/>
			<path fill="#FFFFFF" d="M41.094,88.631c-1.79-1.518-2.738-3.732-2.849-6.652c-0.021-0.594-0.032-1.56-0.032-2.897
				c0-1.36,0.011-2.349,0.032-2.963c0.11-2.854,1.07-5.058,2.883-6.604c1.811-1.549,4.264-2.322,7.358-2.322
				c1.954,0,3.705,0.318,5.254,0.955c1.548,0.639,2.771,1.56,3.67,2.767c0.901,1.208,1.373,2.636,1.417,4.28
				c0,0.199-0.071,0.363-0.214,0.494c-0.143,0.131-0.312,0.197-0.51,0.197h-4.677c-0.308,0-0.533-0.06-0.675-0.181
				c-0.144-0.12-0.27-0.345-0.379-0.675c-0.309-1.075-0.774-1.828-1.399-2.256c-0.625-0.43-1.454-0.644-2.487-0.644
				c-2.48,0-3.765,1.384-3.853,4.149c-0.022,0.593-0.033,1.506-0.033,2.734c0,1.229,0.011,2.16,0.033,2.797
				c0.088,2.767,1.372,4.15,3.853,4.15c1.009,0,1.84-0.221,2.487-0.658c0.647-0.439,1.114-1.188,1.399-2.24
				c0.087-0.33,0.208-0.554,0.362-0.674c0.153-0.121,0.384-0.183,0.691-0.183h4.677c0.197,0,0.367,0.065,0.51,0.198
				c0.143,0.131,0.214,0.295,0.214,0.492c-0.044,1.647-0.516,3.074-1.417,4.283c-0.898,1.207-2.122,2.127-3.67,2.766
				c-1.549,0.637-3.3,0.955-5.254,0.955C45.347,90.902,42.884,90.145,41.094,88.631z"/>
		</g>
	</g>
	<g>
		<path fill="#FFFFFF" d="M64.004,90.955c-0.133-0.145-0.199-0.326-0.199-0.548V68.699c0-0.243,0.066-0.438,0.199-0.582
			c0.135-0.145,0.312-0.215,0.532-0.215h8.409c2.506,0,4.473,0.604,5.902,1.811c1.43,1.209,2.144,2.965,2.144,5.27
			c0,2.306-0.714,4.057-2.144,5.252c-1.431,1.197-3.396,1.795-5.902,1.795h-5.982v8.379c0,0.222-0.071,0.404-0.215,0.548
			c-0.146,0.146-0.327,0.217-0.55,0.217h-1.662C64.315,91.172,64.139,91.1,64.004,90.955z M72.779,79.338
			c3.348,0,5.021-1.451,5.021-4.355c0-1.418-0.415-2.504-1.245-3.258c-0.832-0.752-2.091-1.129-3.773-1.129h-5.817v8.742H72.779z"/>
		<path fill="#FFFFFF" d="M79.427,90.973c-0.134-0.133-0.198-0.287-0.198-0.466l0.064-0.366l8.245-21.508
			c0.177-0.486,0.532-0.73,1.063-0.73h2.127c0.531,0,0.886,0.244,1.063,0.73l8.244,21.508l0.065,0.366
			c0,0.179-0.072,0.333-0.217,0.466c-0.143,0.133-0.305,0.199-0.48,0.199h-1.562c-0.222,0-0.402-0.061-0.549-0.184
			c-0.145-0.121-0.238-0.25-0.281-0.383L95.15,85.82H84.146l-1.828,4.785c-0.178,0.379-0.453,0.565-0.83,0.565h-1.598
			C79.715,91.172,79.561,91.105,79.427,90.973z M85.111,83.061h9.107l-4.555-11.934L85.111,83.061z"/>
		<path fill="#FFFFFF" d="M105.471,90.955c-0.145-0.145-0.217-0.326-0.217-0.548v-7.878l-8.01-13.53
			c-0.067-0.133-0.102-0.276-0.102-0.433c0-0.178,0.066-0.332,0.199-0.465s0.288-0.199,0.467-0.199h1.596
			c0.397,0,0.687,0.188,0.863,0.563l6.582,10.871l6.549-10.871c0.223-0.377,0.51-0.563,0.863-0.563h1.596
			c0.178,0,0.338,0.066,0.481,0.199c0.146,0.133,0.218,0.287,0.218,0.465c0,0.111-0.045,0.256-0.134,0.433l-8.011,13.53v7.878
			c0,0.222-0.072,0.403-0.217,0.548c-0.146,0.145-0.338,0.217-0.582,0.217h-1.596C105.797,91.172,105.615,91.1,105.471,90.955z"/>
	</g>
</g>
</svg>
