<?xml version="1.0" encoding="utf-8"?>
<!-- Generator: Adobe Illustrator 16.0.0, SVG Export Plug-In . SVG Version: 6.00 Build 0)  -->
<!DOCTYPE svg PUBLIC "-//W3C//DTD SVG 1.1//EN" "http://www.w3.org/Graphics/SVG/1.1/DTD/svg11.dtd">
<svg version="1.1" id="Capa_1" xmlns="http://www.w3.org/2000/svg" xmlns:xlink="http://www.w3.org/1999/xlink" x="0px" y="0px"
	 width="779.961px" height="165.253px" viewBox="0 0 779.961 165.253" enable-background="new 0 0 779.961 165.253"
	 xml:space="preserve">
<g>
	<g>
		<path fill="#FFFFFF" d="M280.548,129.567c-0.564-0.562-1.059-1.094-1.059-1.984V48.9c0-0.889,0.494-1.4,1.059-2.006
			c0.564-0.607,1.505-0.674,2.394-0.674h16.611c0.889,0,1.526,0.066,2.133,0.674c0.606,0.605,0.804,1.117,0.804,2.006v28.32h29V48.9
			c0-0.889,0.218-1.4,0.823-2.006c0.604-0.607,1.267-0.674,2.155-0.674h16.487c0.89,0,1.828,0.066,2.436,0.674
			c0.604,0.605,1.099,1.117,1.099,2.006v78.682c0,0.891-0.495,1.422-1.099,1.984c-0.607,0.568-1.546,0.654-2.436,0.654h-16.487
			c-0.889,0-1.552-0.086-2.155-0.654c-0.605-0.562-0.823-1.094-0.823-1.984V98.221h-29v29.361c0,0.891-0.197,1.422-0.804,1.984
			c-0.606,0.568-1.244,0.654-2.133,0.654h-16.611C282.053,130.221,281.112,130.135,280.548,129.567z"/>
		<path fill="#FFFFFF" d="M373.684,123.463c-6.588-5.58-10.081-13.74-10.487-24.49c-0.08-2.184-0.119-5.738-0.119-10.668
			c0-5.012,0.039-8.648,0.119-10.913c0.406-10.506,3.941-18.612,10.611-24.309c6.668-5.698,15.699-8.547,27.094-8.547
			c7.195,0,13.64,1.171,19.339,3.517c5.7,2.345,10.202,5.737,13.517,10.183c3.314,4.446,5.051,9.698,5.213,15.76
			c0,0.728-0.263,1.173-0.789,1.659c-0.525,0.482-1.15,0.565-1.877,0.565h-17.215c-1.133,0-1.963-0.06-2.484-0.507
			c-0.529-0.441-0.992-1.19-1.395-2.403c-1.136-3.959-2.852-6.688-5.154-8.265c-2.304-1.576-5.355-2.345-9.154-2.345
			c-9.135,0-13.859,5.104-14.185,15.288c-0.081,2.18-0.12,5.542-0.12,10.068c0,4.527,0.039,7.961,0.12,10.307
			c0.325,10.182,5.05,15.275,14.185,15.275c3.718,0,6.77-0.807,9.154-2.422c2.384-1.619,4.104-4.365,5.154-8.244
			c0.32-1.215,0.766-1.842,1.332-2.285c0.564-0.445,1.414-0.467,2.547-0.467h17.215c0.727,0,1.352,0.043,1.877,0.529
			c0.526,0.482,0.789,0.99,0.789,1.717c-0.162,6.062-1.898,11.266-5.213,15.709c-3.314,4.447-7.816,7.816-13.517,10.162
			c-5.699,2.342-12.144,3.502-19.339,3.502C389.345,131.84,380.271,129.038,373.684,123.463z"/>
	</g>
	<g>
		<path fill="#FFFFFF" d="M461.269,127.213L445.628,49.33l-0.242-1.296c0-0.646,0.242-1.409,0.729-1.893
			c0.484-0.486,1.049-0.921,1.695-0.921h5.941c1.697,0,2.668,0.9,2.91,2.273l12.486,63.389l13.458-43.698
			c0.485-1.939,1.736-2.965,3.758-2.965h4.244c1.939,0,3.23,1.078,3.88,3.018l13.334,43.698l12.488-63.469
			c0.242-1.373,1.253-2.246,3.031-2.246h5.819c0.646,0,1.211,0.453,1.696,0.939c0.485,0.483,0.729,1.157,0.729,1.804
			c0,0.485-0.042,0.983-0.122,1.386l-15.761,77.836c-0.405,2.102-1.658,3.035-3.758,3.035h-4.365c-2.02,0-3.354-0.867-4-2.889
			l-15.033-46.6l-15.154,46.565c-0.566,2.02-1.86,2.924-3.88,2.924h-4.485C463.005,130.221,461.753,129.315,461.269,127.213z"/>
		<path fill="#FFFFFF" d="M545.164,123.417c-5.739-5.533-8.771-13.879-9.092-25.033c-0.083-2.424-0.121-5.859-0.121-10.307
			c0-4.444,0.038-7.836,0.121-10.181c0.321-10.993,3.454-19.316,9.396-24.977c5.94-5.657,13.961-8.485,24.064-8.485
			c10.103,0,18.104,2.828,24.005,8.485c5.898,5.66,9.012,13.983,9.336,24.977c0.16,4.688,0.241,8.08,0.241,10.181
			c0,2.021-0.081,5.457-0.241,10.307c-0.324,11.154-3.335,19.5-9.032,25.033c-5.697,5.539-13.802,8.309-24.309,8.309
			C559.024,131.725,550.902,128.956,545.164,123.417z M585.051,115.782c3.879-3.922,5.98-9.922,6.306-18.006
			c0.16-4.85,0.241-8.08,0.241-9.699c0-1.777-0.081-5.01-0.241-9.698c-0.325-8.08-2.427-14.104-6.306-18.064
			c-3.88-3.96-9.052-5.939-15.519-5.939c-6.466,0-11.659,1.979-15.577,5.939c-3.922,3.961-6.003,9.984-6.245,18.064
			c-0.08,2.346-0.121,5.577-0.121,9.698c0,4.043,0.041,7.275,0.121,9.699c0.242,8.084,2.304,14.084,6.184,18.006
			c3.879,3.918,9.093,5.877,15.639,5.877C575.999,121.659,581.171,119.7,585.051,115.782z"/>
		<path fill="#FFFFFF" d="M614.364,129.577c-0.486-0.525-0.875-1.047-0.875-1.855V48.556c0-0.888,0.389-1.809,0.875-2.337
			c0.484-0.522,1.276-0.998,2.085-0.998h29.581c9.214,0,16.428,2.373,21.641,6.697c5.214,4.324,7.82,10.717,7.82,18.959
			c0,6.144-1.536,11.25-4.607,15.208c-3.072,3.961-7.355,6.738-12.851,8.271l18.669,32.383c0.244,0.486,0.365,0.938,0.365,1.34
			c0,0.648-0.243,1.07-0.729,1.555c-0.485,0.486-1.051,0.588-1.696,0.588h-5.334c-1.214,0-2.164-0.139-2.85-0.705
			c-0.688-0.564-1.315-1.289-1.88-2.34l-17.821-30.955h-21.269v31.5c0,0.809-0.439,1.33-1.004,1.855
			c-0.567,0.525-1.411,0.645-2.217,0.645h-5.819C615.641,130.221,614.849,130.102,614.364,129.577z M645.545,86.221
			c12.203,0,18.308-5.238,18.308-15.5c0-10.264-6.104-15.5-18.308-15.5h-20.056v31H645.545z"/>
		<path fill="#FFFFFF" d="M686.37,129.577c-0.484-0.525-0.881-1.047-0.881-1.855V48.556c0-0.888,0.396-1.809,0.881-2.337
			c0.485-0.522,1.283-0.998,2.093-0.998h5.697c0.889,0,1.806,0.476,2.331,0.998c0.525,0.528,0.998,1.449,0.998,2.337v30.187
			l32.646-31.368c1.291-1.295,2.657-2.153,4.519-2.153h6.062c0.646,0,1.212,0.453,1.696,0.939c0.485,0.483,0.729,1.157,0.729,1.804
			c0,0.647-0.203,1.226-0.606,1.628l-37.826,36.643l40.372,40.139c0.404,0.484,0.606,1.059,0.606,1.705
			c0,0.648-0.243,1.07-0.729,1.555c-0.484,0.486-1.05,0.588-1.695,0.588h-6.305c-1.134,0-2.022-0.037-2.668-0.4
			c-0.646-0.367-1.123-0.758-1.852-1.32l-34.948-34.24v33.461c0,0.809-0.494,1.33-1.059,1.855c-0.565,0.525-1.463,0.645-2.271,0.645
			h-5.697C687.653,130.221,686.855,130.102,686.37,129.577z"/>
	</g>
</g>
<g>
	<path fill="#FFFFFF" d="M243.965,13.144C240.402,11.088,236.358,10,232.271,10c-8.36,0-16.146,4.491-20.32,11.721l-26.952,46.683
		c8.713,15.817,17.089,31.021,17.182,31.188c1.872,3.381,5.174,5.398,8.826,5.398c1.717,0,3.386-0.441,4.961-1.314l0.127-0.07
		c1.317-0.73,3.146-1.748,4.324-2.811l32.123-55.639C259.003,33.967,255.155,19.605,243.965,13.144z"/>
	<path fill="#FFFFFF" d="M211.007,108.401c-4.912,0-9.326-2.676-11.81-7.156c-0.085-0.152-9.916-17.998-19.372-35.164
		c-0.232-0.135-0.445-0.307-0.596-0.545c-0.998-1.574-2.423-2.904-4.12-3.843c-1.574-0.873-3.242-1.316-4.953-1.316
		c-3.642,0-6.932,2.019-8.805,5.398c-0.114,0.205-8.219,14.905-17.449,31.649l18.368,33.116
		c4.132,7.449,11.998,12.078,20.533,12.078c3.946,0,7.868-1.018,11.342-2.941c3.701-2.053,5.843-4.92,8.097-8.883l14.593-23.732
		C214.991,107.94,212.991,108.401,211.007,108.401z"/>
	<path fill="#FFFFFF" d="M161.388,34.582c-2.277-3.999-4.414-6.879-8.045-8.892c-3.473-1.924-7.396-2.941-11.342-2.941
		c-8.534,0-16.4,4.627-20.531,12.078L95.363,81.894c9.459,16.446,17.716,30.799,17.805,30.953c1.896,3.283,5.197,5.242,8.832,5.242
		c1.771,0,3.548-0.486,5.142-1.404c1.908-1.104,3.455-2.498,4.354-3.932c0.046-0.073,0.111-0.125,0.167-0.189
		c12.306-22.321,26.614-48.277,26.708-48.444c2.481-4.477,6.886-7.152,11.785-7.152c1.555,0,3.121,0.285,4.615,0.832L161.388,34.582
		z"/>
	<path fill="#FFFFFF" d="M110.216,114.551c-0.163-0.281-43.723-76.009-45.575-79.233c-4.174-7.228-11.937-11.718-20.256-11.718
		c-4.074,0-8.111,1.087-11.673,3.144c-11.174,6.451-15.002,20.812-8.537,32.013l49.525,85.74
		c4.174,7.23,11.963,11.723,20.328,11.723c4.089,0,8.133-1.088,11.695-3.143c3.31-1.912,5.751-4.615,8.168-9.039l13.263-23.568
		c-1.647,0.676-3.399,1.027-5.154,1.027C117.132,121.497,112.726,118.903,110.216,114.551z"/>
</g>
</svg>
