<?xml version="1.0" encoding="utf-8"?>
<!-- Generator: Adobe Illustrator 16.0.0, SVG Export Plug-In . SVG Version: 6.00 Build 0)  -->
<!DOCTYPE svg PUBLIC "-//W3C//DTD SVG 1.1//EN" "http://www.w3.org/Graphics/SVG/1.1/DTD/svg11.dtd">
<svg version="1.1" id="Capa_1" xmlns="http://www.w3.org/2000/svg" xmlns:xlink="http://www.w3.org/1999/xlink" x="0px" y="0px"
	 width="72.719px" height="57.89px" viewBox="0 0 72.719 57.89" enable-background="new 0 0 72.719 57.89" xml:space="preserve">
<g>
	<g transform="translate(0,-952.36218)">
		<path fill="#237683" d="M25.326,1154.327c-1.498,0-2.822,0.803-3.719,1.998c-0.896,1.194-1.415,2.796-1.415,4.535v16.8
			c0,1.739,0.519,3.325,1.415,4.521s2.221,2.013,3.719,2.013h11.492c-0.865,0.988-1.439,2.296-1.619,3.733h-6.14
			c-0.029-0.002-0.058-0.002-0.087,0c-0.516,0.023-0.915,0.46-0.892,0.976c0.022,0.516,0.46,0.914,0.976,0.891
			c0.001,0,0.002,0,0.003,0h6.927h9.494h6.913c0.516,0.008,0.939-0.404,0.946-0.92c0.008-0.516-0.404-0.939-0.92-0.946
			c-0.009,0-0.018,0-0.026,0h-6.14c-0.18-1.438-0.754-2.745-1.619-3.733h11.492c1.497,0,2.822-0.817,3.719-2.013
			s1.415-2.781,1.415-4.521v-16.8c0-1.739-0.519-3.341-1.415-4.535c-0.896-1.195-2.222-1.998-3.719-1.998H25.326z M25.326,1156.193
			h30.801c0.83,0,1.609,0.425,2.231,1.254s1.035,2.05,1.035,3.413v16.8c0,1.363-0.413,2.568-1.035,3.397s-1.401,1.27-2.231,1.27
			H25.326c-0.829,0-1.609-0.44-2.231-1.27s-1.035-2.034-1.035-3.397v-16.8c0-1.363,0.413-2.584,1.035-3.413
			S24.497,1156.193,25.326,1156.193z M25.793,1157.127c-0.893,0-1.641,0.536-2.101,1.225c-0.459,0.689-0.7,1.565-0.7,2.509v16.8
			c0,0.942,0.241,1.805,0.7,2.493c0.46,0.689,1.208,1.24,2.101,1.24H55.66c0.893,0,1.641-0.551,2.1-1.24
			c0.46-0.688,0.7-1.551,0.7-2.493v-16.8c0-0.943-0.24-1.819-0.7-2.509c-0.459-0.688-1.207-1.225-2.1-1.225H25.793z
			 M25.793,1158.993H55.66c0.142,0,0.324,0.071,0.54,0.395c0.216,0.322,0.394,0.864,0.394,1.473v16.8
			c0,0.608-0.178,1.135-0.394,1.458s-0.398,0.408-0.54,0.408H25.793c-0.142,0-0.324-0.085-0.539-0.408
			c-0.216-0.323-0.395-0.85-0.395-1.458v-16.8c0-0.608,0.179-1.15,0.395-1.473C25.469,1159.064,25.651,1158.993,25.793,1158.993z
			 M40.727,1163.66c-1.793,0-3.267,1.474-3.267,3.267c0,0.766,0.267,1.468,0.715,2.027c-1.808,0.931-3.048,2.809-3.048,4.973
			c0,0.516,0.417,0.934,0.933,0.934h4.667h4.667c0.516,0,0.933-0.418,0.933-0.934c0-2.164-1.24-4.042-3.047-4.973
			c0.447-0.56,0.714-1.262,0.714-2.027C43.993,1165.134,42.52,1163.66,40.727,1163.66z M40.727,1165.526c0.784,0,1.4,0.616,1.4,1.4
			s-0.616,1.4-1.4,1.4s-1.4-0.616-1.4-1.4S39.942,1165.526,40.727,1165.526z M40.727,1170.193c1.741,0,3.124,1.196,3.544,2.8h-3.544
			h-3.544C37.603,1171.39,38.985,1170.193,40.727,1170.193z M40.727,1184.193c1.726,0,3.224,1.561,3.588,3.733h-7.176
			C37.503,1185.754,39.001,1184.193,40.727,1184.193z"/>
	</g>
	<path fill="#237683" d="M24.965,246.406h-0.105c-0.3,0-0.604-0.008-0.901-0.023l0.015-0.25c0.293,0.016,0.592,0.023,0.887,0.023
		h0.105V246.406z"/>
	<path fill="#237683" d="M26.974,246.279l-0.031-0.248c0.329-0.04,0.659-0.091,0.981-0.148l0.045,0.246
		C27.641,246.188,27.307,246.238,26.974,246.279z"/>
	<path fill="#237683" d="M21.959,246.165c-0.338-0.057-0.67-0.123-0.988-0.195l0.057-0.244c0.312,0.072,0.641,0.137,0.973,0.193
		L21.959,246.165z"/>
	<path fill="#237683" d="M29.926,245.656l-0.072-0.238c0.314-0.097,0.631-0.203,0.941-0.317l0.086,0.234
		C30.566,245.451,30.246,245.56,29.926,245.656z"/>
	<path fill="#237683" d="M19.036,245.406c-0.317-0.113-0.634-0.237-0.94-0.366l0.098-0.23c0.301,0.128,0.613,0.249,0.927,0.36
		L19.036,245.406z"/>
	<path fill="#237683" d="M32.724,244.529l-0.113-0.223c0.296-0.15,0.589-0.311,0.87-0.475l0.127,0.215
		C33.322,244.215,33.024,244.377,32.724,244.529z"/>
	<path fill="#237683" d="M16.29,244.15c-0.295-0.168-0.585-0.344-0.862-0.523l0.137-0.209c0.273,0.177,0.559,0.35,0.849,0.516
		L16.29,244.15z"/>
	<path fill="#237683" d="M35.283,242.934l-0.15-0.199c0.264-0.198,0.524-0.406,0.775-0.619l0.162,0.191
		C35.814,242.522,35.551,242.733,35.283,242.934z"/>
	<path fill="#237683" d="M13.807,242.438c-0.254-0.21-0.509-0.433-0.758-0.663l0.17-0.184c0.245,0.227,0.496,0.447,0.746,0.653
		L13.807,242.438z"/>
	<path fill="#237683" d="M37.529,240.921l-0.182-0.172c0.221-0.234,0.441-0.484,0.658-0.743l0.191,0.16
		C37.979,240.429,37.754,240.683,37.529,240.921z"/>
	<path fill="#237683" d="M11.654,240.322c-0.21-0.244-0.422-0.508-0.633-0.782l0.199-0.152c0.207,0.271,0.416,0.531,0.624,0.772
		L11.654,240.322z"/>
	<path fill="#237683" d="M39.398,238.55l-0.209-0.137c0.18-0.276,0.355-0.561,0.52-0.847l0.217,0.125
		C39.758,237.981,39.582,238.27,39.398,238.55z"/>
	<path fill="#237683" d="M9.898,237.869c-0.172-0.289-0.336-0.585-0.487-0.88l0.222-0.115c0.15,0.291,0.312,0.583,0.479,0.868
		L9.898,237.869z"/>
	<path fill="#237683" d="M8.593,235.15c-0.116-0.31-0.226-0.63-0.327-0.952l0.239-0.074c0.099,0.317,0.208,0.633,0.322,0.938
		L8.593,235.15z"/>
	<path fill="#237683" d="M7.781,232.244c-0.061-0.326-0.113-0.661-0.156-0.994l0.248-0.031c0.043,0.328,0.096,0.657,0.154,0.98
		L7.781,232.244z"/>
	<path fill="#237683" d="M7.486,229.243l-0.002-0.212c0-0.267,0.006-0.531,0.018-0.796l0.25,0.012
		c-0.012,0.261-0.018,0.521-0.018,0.784l0.002,0.208L7.486,229.243z"/>
	<path fill="#237683" d="M7.955,226.275l-0.246-0.041c0.055-0.336,0.118-0.669,0.189-0.988l0.244,0.055
		C8.072,225.615,8.01,225.943,7.955,226.275z"/>
	<path fill="#237683" d="M8.686,223.391l-0.236-0.082c0.11-0.315,0.232-0.633,0.36-0.942l0.23,0.096
		C8.913,222.768,8.795,223.08,8.686,223.391z"/>
	<path fill="#237683" d="M9.907,220.677l-0.218-0.123c0.158-0.282,0.332-0.573,0.518-0.864l0.211,0.135
		C10.236,220.11,10.064,220.397,9.907,220.677z"/>
	<path fill="#237683" d="M11.58,218.217l-0.193-0.158c0.213-0.26,0.434-0.516,0.66-0.762l0.183,0.168
		C12.008,217.708,11.789,217.961,11.58,218.217z"/>
	<path fill="#237683" d="M13.652,216.083l-0.165-0.189c0.256-0.221,0.519-0.435,0.78-0.637l0.152,0.197
		C14.161,215.654,13.902,215.865,13.652,216.083z"/>
	<path fill="#237683" d="M16.059,214.338l-0.129-0.215c0.29-0.174,0.586-0.339,0.877-0.491l0.116,0.221
		C16.635,214.003,16.345,214.166,16.059,214.338z"/>
	<path fill="#237683" d="M18.73,213.036l-0.09-0.234c0.316-0.121,0.636-0.232,0.95-0.332l0.077,0.238
		C19.356,212.806,19.042,212.916,18.73,213.036z"/>
</g>
<g>
	<g>
		<path fill="#237683" d="M59.518,144.888c1.125,0,2.037-0.912,2.037-2.037c0-1.126-0.912-2.038-2.037-2.038
			c-1.076,0-1.947,0.837-2.023,1.894l-7.569,1.302c-0.388-0.763-1.105-1.326-1.974-1.486l-0.109-3.375
			c0.664-0.275,1.133-0.93,1.133-1.693c0-1.014-0.82-1.834-1.833-1.834c-1.012,0-1.833,0.82-1.833,1.834
			c0,0.857,0.592,1.571,1.387,1.771l0.107,3.324c-0.66,0.154-1.227,0.543-1.614,1.074l-5.997-3.844
			c0.001-0.023,0.008-0.044,0.008-0.066c0-1.125-0.912-2.037-2.038-2.037c-1.125,0-2.037,0.912-2.037,2.037s0.912,2.037,2.037,2.037
			c0.681,0,1.279-0.336,1.649-0.85l5.898,3.781c-0.039,0.188-0.062,0.383-0.062,0.582c0,0.467,0.126,0.9,0.328,1.287l-10.309,10.355
			c-0.501-0.478-1.176-0.775-1.923-0.775c-0.567,0-1.093,0.172-1.533,0.462l-4.8-4.77c0.357-0.399,0.581-0.923,0.581-1.501
			c0-1.251-1.014-2.264-2.265-2.264c-1.25,0-2.263,1.013-2.263,2.264c0,1.25,1.013,2.264,2.263,2.264
			c0.246,0,0.477-0.049,0.697-0.121l4.977,4.945c-0.284,0.438-0.453,0.957-0.453,1.517c0,0.139,0.021,0.272,0.041,0.405
			l-6.588,2.435c-0.323-0.522-0.896-0.874-1.556-0.874c-1.013,0-1.834,0.821-1.834,1.833c0,1.013,0.821,1.833,1.834,1.833
			c0.954,0,1.729-0.731,1.816-1.664l6.752-2.484c0.397,0.631,1.241,1.094,1.815,1.25v4.125c-0.574,0.242-1.289,0.922-1.289,1.731
			c0,1.013,0.806,1.834,1.818,1.834c1.014,0,1.857-0.821,1.857-1.834c0-0.81-0.661-1.489-1.236-1.731v-4.125
			c0.575-0.191,1.636-0.832,1.98-1.682l9.322,1.916c-0.007,0.068-0.027,0.135-0.027,0.207c0,1.125,0.907,2.037,2.033,2.037
			c0.162,0,0.316-0.024,0.468-0.061l1.923,3.803c-0.53,0.367-0.879,0.979-0.879,1.674c0,0.299,0.066,0.58,0.183,0.836l-2.917,2.916
			c-0.248-0.124-0.523-0.201-0.819-0.201c-1.013,0-1.833,0.82-1.833,1.833s0.821,1.833,1.833,1.833c1.013,0,1.834-0.82,1.834-1.833
			c0-0.296-0.077-0.571-0.202-0.819l2.856-2.855c0.318,0.205,0.694,0.326,1.101,0.326c0.563,0,1.072-0.228,1.44-0.596l5.349,3.582
			c-0.162,0.274-0.261,0.59-0.261,0.931c0,1.013,0.821,1.833,1.833,1.833c1.013,0,1.834-0.82,1.834-1.833s-0.821-1.833-1.834-1.833
			c-0.234,0-0.456,0.047-0.661,0.128l-5.708-3.824c0.029-0.138,0.046-0.278,0.046-0.425c0-1.125-0.912-2.037-2.038-2.037
			c-0.017,0-0.033,0.004-0.05,0.006l-2.031-4.017c0.349-0.366,0.566-0.858,0.566-1.404c0-1.125-0.912-2.037-2.037-2.037
			c-0.634,0-1.192,0.295-1.565,0.749l-9.588-1.967c-0.01-0.344-0.077-0.672-0.201-0.974l10.381-10.43
			c0.477,0.38,1.073,0.616,1.731,0.616c0.587,0,1.13-0.184,1.581-0.492l5.301,5.242c-0.121,0.246-0.195,0.518-0.195,0.81
			c0,1.013,0.82,1.833,1.832,1.833c1.013,0,1.834-0.821,1.834-1.833c0-1.013-0.821-1.833-1.834-1.833
			c-0.299,0-0.578,0.078-0.828,0.206l-5.321-5.261c0.266-0.428,0.425-0.927,0.425-1.467c0-0.047-0.012-0.092-0.014-0.139
			l7.521-1.295C58.089,144.458,58.749,144.888,59.518,144.888z"/>
	</g>
	
		<circle fill="none" stroke="#237683" stroke-width="0.25" stroke-miterlimit="10" stroke-dasharray="1,2" cx="43.321" cy="158.044" r="13.54"/>
</g>
<g>
	<g>
		<path fill="#237683" d="M61.762,32.891c0.013-1.447,1.577-2.979,1.577-2.979c0.221-0.215,0.323-0.63,0.229-0.923l-1.195-2.953
			c-0.137-0.275-0.501-0.501-0.808-0.503c0,0-2.191-0.015-3.204-1.045c-1.017-1.03-0.996-3.22-0.996-3.22
			c0.003-0.308-0.219-0.675-0.491-0.817l-2.933-1.239c-0.077-0.026-0.164-0.039-0.253-0.039c-0.246,0-0.514,0.095-0.674,0.253
			c0,0-0.276,0.271-0.701,0.586v-9.209c0-0.263-0.089-0.511-0.209-0.698c-0.23-0.353-0.526-0.552-0.861-0.738
			c-0.587-0.314-1.35-0.555-2.308-0.778c-1.433-0.33-3.292-0.594-5.451-0.78c-2.158-0.185-4.614-0.29-7.221-0.29
			c-4.237,0-8.071,0.273-10.889,0.726c-1.41,0.228-2.562,0.495-3.425,0.821c-0.432,0.167-0.795,0.342-1.105,0.584
			c-0.155,0.123-0.302,0.265-0.422,0.454c-0.105,0.163-0.183,0.374-0.201,0.599c-0.002,0.026-0.008,0.051-0.008,0.077v30.173
			c0,0.245,0.062,0.485,0.16,0.692c0.189,0.39,0.48,0.673,0.819,0.919c0.595,0.424,1.374,0.753,2.341,1.053
			c1.449,0.444,3.318,0.798,5.486,1.046c2.166,0.247,4.629,0.387,7.242,0.387c2.258-0.001,4.387-0.11,6.324-0.298
			c0.09,0.167,0.221,0.315,0.371,0.393l2.934,1.239c0.078,0.026,0.164,0.039,0.254,0.039c0.246,0,0.514-0.094,0.674-0.252
			c0,0,1.55-1.526,2.992-1.526h0.012c1.447,0.013,2.979,1.576,2.979,1.576c0.161,0.165,0.434,0.263,0.684,0.263
			c0.085,0,0.166-0.011,0.24-0.035l2.953-1.195c0.275-0.138,0.502-0.501,0.504-0.809c0,0,0.016-2.186,1.046-3.203
			c0.984-0.97,3.024-0.992,3.207-0.992h0.013h0.008c0.306,0,0.668-0.22,0.809-0.49l1.24-2.932c0.099-0.291,0.002-0.709-0.213-0.927
			C63.291,35.9,61.753,34.339,61.762,32.891z M22.223,10.77c0.414-0.196,1.108-0.413,1.995-0.604
			c2.67-0.58,7.083-0.971,12.044-0.969c4.163,0,7.934,0.272,10.623,0.706c1.342,0.214,2.418,0.474,3.096,0.733
			c0.151,0.057,0.279,0.114,0.386,0.168c-0.022,0.011-0.04,0.022-0.064,0.033c-0.413,0.196-1.108,0.413-1.994,0.603
			c-2.671,0.58-7.084,0.971-12.046,0.97c-4.161,0-7.934-0.272-10.622-0.705c-1.341-0.215-2.418-0.474-3.095-0.733
			c-0.151-0.057-0.279-0.115-0.387-0.168C22.181,10.792,22.199,10.78,22.223,10.77z M21.89,12.511
			c0.481,0.188,1.042,0.352,1.701,0.505c1.433,0.33,3.292,0.594,5.451,0.78c2.158,0.184,4.614,0.29,7.22,0.29
			c4.238-0.001,8.072-0.274,10.889-0.727c1.41-0.228,2.562-0.495,3.425-0.821c0.021-0.009,0.038-0.018,0.059-0.026v8.234
			c-0.039,0.038-0.123,0.101-0.239,0.17c-0.123,0.02-0.245,0.035-0.367,0.035h-0.019c-1.448-0.01-2.979-1.572-2.979-1.572
			c-0.161-0.165-0.435-0.265-0.685-0.265c-0.085,0-0.166,0.012-0.239,0.035l-2.954,1.195c-0.274,0.137-0.501,0.501-0.503,0.809
			c0,0-0.005,0.608-0.158,1.332c-1.897,0.155-4,0.247-6.229,0.246c-4.158,0-7.926-0.303-10.608-0.783
			c-1.339-0.238-2.41-0.525-3.081-0.81c-0.335-0.14-0.565-0.283-0.662-0.369l-0.021-0.021L21.89,12.511L21.89,12.511z M21.89,22.664
			c0.478,0.206,1.032,0.385,1.682,0.553c1.438,0.367,3.3,0.662,5.462,0.868c2.162,0.206,4.62,0.322,7.229,0.322
			c1.93,0,3.762-0.069,5.465-0.186c-0.039,0.046-0.078,0.093-0.121,0.135c-0.992,0.976-3.05,0.995-3.21,0.995h-0.01h-0.007
			c-0.306,0-0.669,0.22-0.81,0.491l-1.241,2.934c-0.098,0.291-0.002,0.709,0.214,0.927c0,0,1.538,1.556,1.528,3.002
			c-0.003,0.29-0.069,0.582-0.172,0.865c-0.538,0.014-1.08,0.025-1.637,0.025c-4.15,0.001-7.91-0.363-10.58-0.937
			c-1.332-0.284-2.395-0.627-3.057-0.964c-0.331-0.166-0.556-0.332-0.658-0.443c-0.051-0.052-0.071-0.086-0.078-0.101L21.89,22.664
			L21.89,22.664z M25.684,42.438c-1.333-0.284-2.395-0.626-3.057-0.964c-0.331-0.166-0.557-0.333-0.659-0.443
			c-0.051-0.052-0.071-0.087-0.078-0.101v-7.734c0.472,0.238,1.014,0.449,1.644,0.644c1.447,0.444,3.316,0.798,5.484,1.046
			s4.631,0.388,7.244,0.388c0.207,0,0.408-0.006,0.611-0.008c-0.217,0.261-0.377,0.419-0.377,0.419
			c-0.221,0.216-0.322,0.631-0.229,0.924l1.195,2.954c0.137,0.275,0.501,0.501,0.809,0.502c0,0,2.188,0.012,3.201,1.045
			c0.504,0.511,0.752,1.308,0.873,1.98c-1.857,0.177-3.908,0.283-6.084,0.283C32.113,43.375,28.354,43.011,25.684,42.438z
			 M60.938,38.589c-0.968,0.06-2.744,0.331-3.889,1.459c-1.152,1.137-1.446,2.93-1.521,3.861l-1.915,0.775
			c-0.703-0.619-2.165-1.703-3.804-1.717c-1.607,0-3.073,1.053-3.781,1.655l-1.902-0.803c-0.059-0.935-0.323-2.735-1.457-3.883
			c-1.135-1.158-2.929-1.451-3.864-1.524l-0.774-1.916c0.617-0.701,1.697-2.16,1.717-3.781c0.01-1.616-1.05-3.089-1.658-3.801
			l0.805-1.902c0.969-0.061,2.74-0.333,3.888-1.461c1.153-1.136,1.446-2.93,1.521-3.863l1.912-0.774
			c0.702,0.619,2.16,1.703,3.777,1.714h0.035c1.607,0,3.068-1.05,3.775-1.654l1.899,0.804c0.058,0.934,0.324,2.735,1.462,3.885
			c1.133,1.154,2.93,1.45,3.863,1.524l0.775,1.913c-0.619,0.703-1.703,2.161-1.718,3.782c-0.011,1.618,1.05,3.095,1.657,3.809
			L60.938,38.589z"/>
		<path fill="#237683" d="M49.921,27.267l0.022,1.677c2.125,0.02,3.843,1.762,3.828,3.882c-0.02,2.109-1.748,3.826-3.855,3.826
			h-0.029c-2.123-0.017-3.839-1.759-3.822-3.882c0.017-2.109,1.747-3.826,3.856-3.826V27.267 M49.921,27.267
			c-3.033,0-5.509,2.448-5.534,5.489c-0.022,3.051,2.434,5.548,5.486,5.573h0.043c3.034,0,5.506-2.447,5.531-5.488
			c0.021-3.049-2.436-5.545-5.489-5.574H49.921z"/>
	</g>
	<g>
		<path fill="#237683" d="M25.601,52.626c-0.299,0.007-0.603,0.006-0.903-0.001l0.008-0.25c0.296,0.008,0.595,0.009,0.888,0.002
			l0.104-0.003l0.006,0.25L25.601,52.626z"/>
		<path fill="#237683" d="M27.709,52.45l-0.035-0.248c0.324-0.047,0.652-0.104,0.977-0.171l0.051,0.245
			C28.372,52.344,28.037,52.402,27.709,52.45z"/>
		<path fill="#237683" d="M22.693,52.453c-0.331-0.047-0.664-0.105-0.991-0.172l0.049-0.246c0.323,0.065,0.652,0.123,0.978,0.17
			L22.693,52.453z"/>
		<path fill="#237683" d="M30.646,51.757l-0.078-0.238c0.307-0.101,0.621-0.214,0.933-0.338l0.092,0.232
			C31.277,51.539,30.958,51.655,30.646,51.757z"/>
		<path fill="#237683" d="M19.754,51.764c-0.318-0.105-0.638-0.22-0.949-0.343l0.093-0.232c0.307,0.121,0.62,0.235,0.935,0.338
			L19.754,51.764z"/>
		<path fill="#237683" d="M33.417,50.564l-0.118-0.22c0.284-0.152,0.573-0.319,0.859-0.495l0.13,0.213
			C33.998,50.241,33.705,50.41,33.417,50.564z"/>
		<path fill="#237683" d="M16.979,50.573c-0.291-0.156-0.584-0.325-0.873-0.502l0.13-0.213c0.285,0.175,0.575,0.341,0.861,0.495
			L16.979,50.573z"/>
		<path fill="#237683" d="M35.938,48.91l-0.155-0.196c0.264-0.208,0.52-0.422,0.761-0.636l0.167,0.187
			C36.466,48.481,36.205,48.698,35.938,48.91z"/>
		<path fill="#237683" d="M14.455,48.918c-0.259-0.204-0.519-0.42-0.773-0.645l0.166-0.188c0.25,0.221,0.507,0.435,0.763,0.636
			L14.455,48.918z"/>
		<path fill="#237683" d="M38.137,46.844l-0.186-0.168c0.216-0.24,0.432-0.495,0.641-0.757l0.194,0.156
			C38.574,46.341,38.356,46.6,38.137,46.844z"/>
		<path fill="#237683" d="M12.254,46.855c-0.219-0.244-0.438-0.502-0.65-0.768l0.195-0.156c0.209,0.262,0.426,0.516,0.641,0.756
			L12.254,46.855z"/>
		<path fill="#237683" d="M10.44,44.444c-0.175-0.28-0.346-0.572-0.508-0.868l0.22-0.121c0.159,0.292,0.328,0.58,0.5,0.856
			L10.44,44.444z"/>
		<path fill="#237683" d="M9.072,41.757c-0.123-0.307-0.241-0.624-0.35-0.944l0.236-0.08c0.107,0.315,0.223,0.628,0.346,0.93
			L9.072,41.757z"/>
		<path fill="#237683" d="M8.192,38.87c-0.068-0.326-0.128-0.659-0.18-0.99l0.248-0.038c0.049,0.327,0.109,0.656,0.177,0.977
			L8.192,38.87z"/>
		<path fill="#237683" d="M7.827,35.877l-0.007-0.21c-0.006-0.269-0.007-0.534-0.001-0.796l0.25,0.005
			c-0.005,0.26-0.005,0.521,0.001,0.784l0.007,0.208L7.827,35.877z"/>
		<path fill="#237683" d="M8.227,32.897l-0.247-0.034c0.046-0.338,0.103-0.672,0.166-0.993l0.245,0.049
			C8.328,32.235,8.273,32.564,8.227,32.897z"/>
		<path fill="#237683" d="M8.889,29.998L8.65,29.921c0.104-0.321,0.218-0.641,0.338-0.95l0.232,0.09
			C9.103,29.366,8.99,29.682,8.889,29.998z"/>
		<path fill="#237683" d="M10.046,27.255l-0.222-0.117c0.152-0.288,0.319-0.583,0.497-0.876l0.215,0.128
			C10.361,26.682,10.196,26.972,10.046,27.255z"/>
		<path fill="#237683" d="M11.661,24.757l-0.197-0.153c0.21-0.271,0.426-0.532,0.641-0.777l0.188,0.165
			C12.08,24.233,11.868,24.491,11.661,24.757z"/>
		<path fill="#237683" d="M13.682,22.575l-0.169-0.185c0.252-0.229,0.509-0.449,0.766-0.655l0.156,0.194
			C14.183,22.132,13.929,22.35,13.682,22.575z"/>
		<path fill="#237683" d="M16.047,20.774l-0.134-0.212c0.284-0.179,0.575-0.352,0.865-0.513l0.12,0.219
			C16.613,20.427,16.327,20.597,16.047,20.774z"/>
		<path fill="#237683" d="M18.688,19.409l-0.096-0.231c0.312-0.128,0.629-0.248,0.942-0.355l0.082,0.236
			C19.306,19.165,18.994,19.283,18.688,19.409z"/>
	</g>
</g>
<g>
	<g>
		<path fill="#237683" d="M38.115,76.551c-0.721,0-1.287,0.566-1.287,1.287v11.58c0,0.721,0.566,1.287,1.287,1.287h6.434
			c0.72,0,1.286-0.566,1.286-1.287c0-0.72-0.566-1.287-1.286-1.287h-5.146V77.838C39.402,77.117,38.836,76.551,38.115,76.551z"/>
		<path fill="#237683" d="M59.062,85.918l-2.934,2.985c-0.258-9.675-8.235-17.498-18.014-17.498c-9.933,0-18.014,8.08-18.014,18.013
			c0,9.933,8.081,18.013,18.014,18.013c0.721,0,1.287-0.566,1.287-1.287c0-0.72-0.566-1.287-1.287-1.287
			c-8.492,0-15.439-6.948-15.439-15.44c0-8.492,6.947-15.439,15.439-15.439c8.338,0,15.131,6.639,15.439,14.874l-2.934-2.934
			c-0.515-0.515-1.338-0.515-1.801,0c-0.515,0.515-0.515,1.338,0,1.801l5.146,5.146c0.257,0.257,0.566,0.36,0.926,0.36
			c0.361,0,0.67-0.103,0.927-0.36l5.146-5.146c0.515-0.515,0.515-1.338,0-1.801C60.4,85.455,59.576,85.455,59.062,85.918z"/>
	</g>
	<g>
		<path fill="#237683" d="M55.104,89.501c0.007,0.289,0.006,0.582-0.001,0.873l-0.242-0.007c0.008-0.286,0.009-0.575,0.002-0.858
			l-0.003-0.101l0.241-0.006L55.104,89.501z"/>
		<path fill="#237683" d="M54.934,87.465l-0.238,0.034c-0.045-0.313-0.102-0.631-0.166-0.943l0.237-0.049
			C54.832,86.824,54.888,87.147,54.934,87.465z"/>
		<path fill="#237683" d="M54.938,92.309c-0.046,0.32-0.102,0.642-0.166,0.958l-0.237-0.047c0.063-0.312,0.118-0.63,0.165-0.945
			L54.938,92.309z"/>
		<path fill="#237683" d="M54.266,84.627l-0.23,0.075c-0.098-0.297-0.207-0.6-0.326-0.901l0.225-0.088
			C54.055,84.018,54.166,84.326,54.266,84.627z"/>
		<path fill="#237683" d="M54.271,95.148c-0.102,0.307-0.213,0.616-0.331,0.917l-0.225-0.089c0.117-0.296,0.227-0.6,0.327-0.903
			L54.271,95.148z"/>
		<path fill="#237683" d="M53.113,81.951L52.9,82.066c-0.147-0.275-0.309-0.554-0.479-0.831l0.206-0.125
			C52.801,81.39,52.964,81.673,53.113,81.951z"/>
		<path fill="#237683" d="M53.121,97.829c-0.151,0.281-0.314,0.564-0.485,0.844l-0.206-0.125c0.169-0.275,0.329-0.556,0.479-0.832
			L53.121,97.829z"/>
		<path fill="#237683" d="M51.515,79.516l-0.189,0.149c-0.201-0.254-0.407-0.501-0.615-0.734l0.181-0.161
			C51.101,79.007,51.311,79.258,51.515,79.516z"/>
		<path fill="#237683" d="M51.522,100.267c-0.196,0.25-0.405,0.501-0.622,0.747l-0.182-0.16c0.214-0.242,0.42-0.49,0.615-0.737
			L51.522,100.267z"/>
		<path fill="#237683" d="M49.52,77.393l-0.162,0.18c-0.232-0.209-0.479-0.417-0.731-0.619l0.15-0.188
			C49.033,76.969,49.283,77.18,49.52,77.393z"/>
		<path fill="#237683" d="M49.53,102.392c-0.235,0.212-0.485,0.423-0.741,0.629l-0.151-0.189c0.253-0.202,0.499-0.411,0.731-0.619
			L49.53,102.392z"/>
		<path fill="#237683" d="M47.188,75.643l-0.128,0.205c-0.267-0.167-0.546-0.33-0.828-0.483l0.116-0.212
			C46.635,75.309,46.917,75.474,47.188,75.643z"/>
		<path fill="#237683" d="M47.201,104.144c-0.27,0.169-0.552,0.334-0.838,0.491l-0.116-0.212c0.282-0.154,0.56-0.317,0.827-0.483
			L47.201,104.144z"/>
		<path fill="#237683" d="M44.605,105.466c-0.296,0.119-0.603,0.233-0.912,0.337l-0.076-0.229c0.304-0.103,0.605-0.215,0.898-0.333
			L44.605,105.466z"/>
		<path fill="#237683" d="M41.817,106.315c-0.314,0.066-0.636,0.125-0.956,0.173l-0.037-0.239c0.316-0.048,0.634-0.106,0.943-0.171
			L41.817,106.315z"/>
		<path fill="#237683" d="M38.927,106.668l-0.204,0.006c-0.259,0.006-0.516,0.007-0.77,0.001l0.005-0.242
			c0.251,0.005,0.504,0.005,0.758-0.001l0.201-0.007L38.927,106.668z"/>
		<path fill="#237683" d="M36.049,106.283l-0.033,0.238c-0.327-0.045-0.649-0.099-0.959-0.16l0.047-0.237
			C35.408,106.185,35.727,106.238,36.049,106.283z"/>
		<path fill="#237683" d="M33.248,105.643l-0.074,0.23c-0.311-0.1-0.619-0.21-0.918-0.327l0.088-0.225
			C32.638,105.437,32.941,105.545,33.248,105.643z"/>
		<path fill="#237683" d="M30.599,104.525l-0.112,0.214c-0.278-0.147-0.562-0.309-0.847-0.48l0.124-0.207
			C30.045,104.221,30.325,104.38,30.599,104.525z"/>
		<path fill="#237683" d="M28.186,102.965l-0.148,0.19c-0.261-0.203-0.514-0.412-0.75-0.619l0.158-0.181
			C27.68,102.561,27.929,102.765,28.186,102.965z"/>
		<path fill="#237683" d="M26.077,101.014l-0.178,0.163c-0.222-0.243-0.434-0.492-0.633-0.739l0.188-0.151
			C25.65,100.529,25.86,100.774,26.077,101.014z"/>
		<path fill="#237683" d="M24.338,98.729l-0.204,0.129c-0.173-0.274-0.34-0.555-0.495-0.836l0.211-0.116
			C24.003,98.182,24.167,98.458,24.338,98.729z"/>
		<path fill="#237683" d="M23.02,96.179l-0.223,0.092c-0.124-0.301-0.239-0.607-0.344-0.91l0.229-0.079
			C22.784,95.581,22.898,95.882,23.02,96.179z"/>
		<path fill="#237683" d="M22.166,93.437l-0.235,0.051c-0.069-0.312-0.129-0.634-0.18-0.956l0.238-0.038
			C22.039,92.812,22.099,93.128,22.166,93.437z"/>
		<path fill="#237683" d="M21.787,89.629c-0.004,0.235-0.004,0.471,0.004,0.709c0.002,0.084,0.006,0.167,0.009,0.25l-0.241,0.009
			c-0.004-0.1-0.008-0.198-0.01-0.307c-0.005-0.223-0.006-0.444-0.003-0.665L21.787,89.629z"/>
	</g>
</g>
</svg>
