<?xml version="1.0" encoding="utf-8"?>
<!-- Generator: Adobe Illustrator 16.0.0, SVG Export Plug-In . SVG Version: 6.00 Build 0)  -->
<!DOCTYPE svg PUBLIC "-//W3C//DTD SVG 1.1//EN" "http://www.w3.org/Graphics/SVG/1.1/DTD/svg11.dtd">
<svg version="1.1" id="Capa_1" xmlns="http://www.w3.org/2000/svg" xmlns:xlink="http://www.w3.org/1999/xlink" x="0px" y="0px"
	 width="72.719px" height="57.89px" viewBox="0 0 72.719 57.89" enable-background="new 0 0 72.719 57.89" xml:space="preserve">
<g>
	<g transform="translate(0,-952.36218)">
		<path fill="#237683" d="M25.326,1154.327c-1.498,0-2.822,0.803-3.719,1.998c-0.896,1.194-1.415,2.796-1.415,4.535v16.8
			c0,1.739,0.519,3.325,1.415,4.521s2.221,2.013,3.719,2.013h11.492c-0.865,0.988-1.439,2.296-1.619,3.733h-6.14
			c-0.029-0.002-0.058-0.002-0.087,0c-0.516,0.023-0.915,0.46-0.892,0.976c0.022,0.516,0.46,0.914,0.976,0.891
			c0.001,0,0.002,0,0.003,0h6.927h9.494h6.913c0.516,0.008,0.939-0.404,0.946-0.92c0.008-0.516-0.404-0.939-0.92-0.946
			c-0.009,0-0.018,0-0.026,0h-6.14c-0.18-1.438-0.754-2.745-1.619-3.733h11.492c1.497,0,2.822-0.817,3.719-2.013
			s1.415-2.781,1.415-4.521v-16.8c0-1.739-0.519-3.341-1.415-4.535c-0.896-1.195-2.222-1.998-3.719-1.998H25.326z M25.326,1156.193
			h30.801c0.83,0,1.609,0.425,2.231,1.254s1.035,2.05,1.035,3.413v16.8c0,1.363-0.413,2.568-1.035,3.397s-1.401,1.27-2.231,1.27
			H25.326c-0.829,0-1.609-0.44-2.231-1.27s-1.035-2.034-1.035-3.397v-16.8c0-1.363,0.413-2.584,1.035-3.413
			S24.497,1156.193,25.326,1156.193z M25.793,1157.127c-0.893,0-1.641,0.536-2.101,1.225c-0.459,0.689-0.7,1.565-0.7,2.509v16.8
			c0,0.942,0.241,1.805,0.7,2.493c0.46,0.689,1.208,1.24,2.101,1.24H55.66c0.893,0,1.641-0.551,2.1-1.24
			c0.46-0.688,0.7-1.551,0.7-2.493v-16.8c0-0.943-0.24-1.819-0.7-2.509c-0.459-0.688-1.207-1.225-2.1-1.225H25.793z
			 M25.793,1158.993H55.66c0.142,0,0.324,0.071,0.54,0.395c0.216,0.322,0.394,0.864,0.394,1.473v16.8
			c0,0.608-0.178,1.135-0.394,1.458s-0.398,0.408-0.54,0.408H25.793c-0.142,0-0.324-0.085-0.539-0.408
			c-0.216-0.323-0.395-0.85-0.395-1.458v-16.8c0-0.608,0.179-1.15,0.395-1.473C25.469,1159.064,25.651,1158.993,25.793,1158.993z
			 M40.727,1163.66c-1.793,0-3.267,1.474-3.267,3.267c0,0.766,0.267,1.468,0.715,2.027c-1.808,0.931-3.048,2.809-3.048,4.973
			c0,0.516,0.417,0.934,0.933,0.934h4.667h4.667c0.516,0,0.933-0.418,0.933-0.934c0-2.164-1.24-4.042-3.047-4.973
			c0.447-0.56,0.714-1.262,0.714-2.027C43.993,1165.134,42.52,1163.66,40.727,1163.66z M40.727,1165.526c0.784,0,1.4,0.616,1.4,1.4
			s-0.616,1.4-1.4,1.4s-1.4-0.616-1.4-1.4S39.942,1165.526,40.727,1165.526z M40.727,1170.193c1.741,0,3.124,1.196,3.544,2.8h-3.544
			h-3.544C37.603,1171.39,38.985,1170.193,40.727,1170.193z M40.727,1184.193c1.726,0,3.224,1.561,3.588,3.733h-7.176
			C37.503,1185.754,39.001,1184.193,40.727,1184.193z"/>
	</g>
	<path fill="#237683" d="M24.965,246.406h-0.105c-0.3,0-0.604-0.008-0.901-0.023l0.015-0.25c0.293,0.016,0.592,0.023,0.887,0.023
		h0.105V246.406z"/>
	<path fill="#237683" d="M26.974,246.279l-0.031-0.248c0.329-0.04,0.659-0.091,0.981-0.148l0.045,0.246
		C27.641,246.188,27.307,246.238,26.974,246.279z"/>
	<path fill="#237683" d="M21.959,246.165c-0.338-0.057-0.67-0.123-0.988-0.195l0.057-0.244c0.312,0.072,0.641,0.137,0.973,0.193
		L21.959,246.165z"/>
	<path fill="#237683" d="M29.926,245.656l-0.072-0.238c0.314-0.097,0.631-0.203,0.941-0.317l0.086,0.234
		C30.566,245.451,30.246,245.56,29.926,245.656z"/>
	<path fill="#237683" d="M19.036,245.406c-0.317-0.113-0.634-0.237-0.94-0.366l0.098-0.23c0.301,0.128,0.613,0.249,0.927,0.36
		L19.036,245.406z"/>
	<path fill="#237683" d="M32.724,244.529l-0.113-0.223c0.296-0.15,0.589-0.311,0.87-0.475l0.127,0.215
		C33.322,244.215,33.024,244.377,32.724,244.529z"/>
	<path fill="#237683" d="M16.29,244.15c-0.295-0.168-0.585-0.344-0.862-0.523l0.137-0.209c0.273,0.177,0.559,0.35,0.849,0.516
		L16.29,244.15z"/>
	<path fill="#237683" d="M35.283,242.934l-0.15-0.199c0.264-0.198,0.524-0.406,0.775-0.619l0.162,0.191
		C35.814,242.522,35.551,242.733,35.283,242.934z"/>
	<path fill="#237683" d="M13.807,242.438c-0.254-0.21-0.509-0.433-0.758-0.663l0.17-0.184c0.245,0.227,0.496,0.447,0.746,0.653
		L13.807,242.438z"/>
	<path fill="#237683" d="M37.529,240.921l-0.182-0.172c0.221-0.234,0.441-0.484,0.658-0.743l0.191,0.16
		C37.979,240.429,37.754,240.683,37.529,240.921z"/>
	<path fill="#237683" d="M11.654,240.322c-0.21-0.244-0.422-0.508-0.633-0.782l0.199-0.152c0.207,0.271,0.416,0.531,0.624,0.772
		L11.654,240.322z"/>
	<path fill="#237683" d="M39.398,238.55l-0.209-0.137c0.18-0.276,0.355-0.561,0.52-0.847l0.217,0.125
		C39.758,237.981,39.582,238.27,39.398,238.55z"/>
	<path fill="#237683" d="M9.898,237.869c-0.172-0.289-0.336-0.585-0.487-0.88l0.222-0.115c0.15,0.291,0.312,0.583,0.479,0.868
		L9.898,237.869z"/>
	<path fill="#237683" d="M8.593,235.15c-0.116-0.31-0.226-0.63-0.327-0.952l0.239-0.074c0.099,0.317,0.208,0.633,0.322,0.938
		L8.593,235.15z"/>
	<path fill="#237683" d="M7.781,232.244c-0.061-0.326-0.113-0.661-0.156-0.994l0.248-0.031c0.043,0.328,0.096,0.657,0.154,0.98
		L7.781,232.244z"/>
	<path fill="#237683" d="M7.486,229.243l-0.002-0.212c0-0.267,0.006-0.531,0.018-0.796l0.25,0.012
		c-0.012,0.261-0.018,0.521-0.018,0.784l0.002,0.208L7.486,229.243z"/>
	<path fill="#237683" d="M7.955,226.275l-0.246-0.041c0.055-0.336,0.118-0.669,0.189-0.988l0.244,0.055
		C8.072,225.615,8.01,225.943,7.955,226.275z"/>
	<path fill="#237683" d="M8.686,223.391l-0.236-0.082c0.11-0.315,0.232-0.633,0.36-0.942l0.23,0.096
		C8.913,222.768,8.795,223.08,8.686,223.391z"/>
	<path fill="#237683" d="M9.907,220.677l-0.218-0.123c0.158-0.282,0.332-0.573,0.518-0.864l0.211,0.135
		C10.236,220.11,10.064,220.397,9.907,220.677z"/>
	<path fill="#237683" d="M11.58,218.217l-0.193-0.158c0.213-0.26,0.434-0.516,0.66-0.762l0.183,0.168
		C12.008,217.708,11.789,217.961,11.58,218.217z"/>
	<path fill="#237683" d="M13.652,216.083l-0.165-0.189c0.256-0.221,0.519-0.435,0.78-0.637l0.152,0.197
		C14.161,215.654,13.902,215.865,13.652,216.083z"/>
	<path fill="#237683" d="M16.059,214.338l-0.129-0.215c0.29-0.174,0.586-0.339,0.877-0.491l0.116,0.221
		C16.635,214.003,16.345,214.166,16.059,214.338z"/>
	<path fill="#237683" d="M18.73,213.036l-0.09-0.234c0.316-0.121,0.636-0.232,0.95-0.332l0.077,0.238
		C19.356,212.806,19.042,212.916,18.73,213.036z"/>
</g>
<g>
	<g>
		<path fill="#237683" d="M55.516,18.321c1.125,0,2.037-0.912,2.037-2.037c0-1.126-0.912-2.038-2.037-2.038
			c-1.076,0-1.947,0.837-2.023,1.894l-7.569,1.302c-0.388-0.763-1.105-1.326-1.974-1.486L43.84,12.58
			c0.664-0.275,1.133-0.93,1.133-1.693c0-1.014-0.82-1.834-1.833-1.834c-1.012,0-1.833,0.82-1.833,1.834
			c0,0.857,0.592,1.571,1.387,1.771l0.107,3.324c-0.66,0.154-1.227,0.543-1.614,1.074l-5.997-3.844
			c0.001-0.023,0.008-0.044,0.008-0.066c0-1.125-0.912-2.037-2.038-2.037c-1.125,0-2.037,0.912-2.037,2.037s0.912,2.037,2.037,2.037
			c0.681,0,1.279-0.336,1.649-0.85l5.898,3.781c-0.039,0.188-0.062,0.383-0.062,0.582c0,0.467,0.126,0.9,0.328,1.287L30.664,30.339
			c-0.501-0.478-1.176-0.775-1.923-0.775c-0.567,0-1.093,0.172-1.533,0.462l-4.8-4.77c0.357-0.399,0.581-0.923,0.581-1.501
			c0-1.251-1.014-2.264-2.265-2.264c-1.25,0-2.263,1.013-2.263,2.264c0,1.25,1.013,2.264,2.263,2.264
			c0.246,0,0.477-0.049,0.697-0.121l4.977,4.945c-0.284,0.438-0.453,0.957-0.453,1.517c0,0.139,0.021,0.272,0.041,0.405L19.398,35.2
			c-0.323-0.522-0.896-0.874-1.556-0.874c-1.013,0-1.834,0.821-1.834,1.833c0,1.013,0.821,1.833,1.834,1.833
			c0.954,0,1.729-0.731,1.816-1.664l6.752-2.484c0.397,0.631,1.241,1.094,1.815,1.25v4.125c-0.574,0.242-1.289,0.922-1.289,1.731
			c0,1.013,0.806,1.834,1.818,1.834c1.014,0,1.857-0.821,1.857-1.834c0-0.81-0.661-1.489-1.236-1.731v-4.125
			c0.575-0.191,1.636-0.832,1.98-1.682l9.322,1.916c-0.007,0.068-0.027,0.135-0.027,0.207c0,1.125,0.907,2.037,2.033,2.037
			c0.162,0,0.316-0.024,0.468-0.061l1.923,3.803c-0.53,0.367-0.879,0.979-0.879,1.674c0,0.299,0.066,0.58,0.183,0.836l-2.917,2.916
			c-0.248-0.124-0.523-0.201-0.819-0.201c-1.013,0-1.833,0.82-1.833,1.833s0.821,1.833,1.833,1.833c1.013,0,1.834-0.82,1.834-1.833
			c0-0.296-0.077-0.571-0.202-0.819l2.856-2.855c0.318,0.205,0.694,0.326,1.101,0.326c0.563,0,1.072-0.228,1.44-0.596l5.349,3.582
			c-0.162,0.274-0.261,0.59-0.261,0.931c0,1.013,0.821,1.833,1.833,1.833c1.013,0,1.834-0.82,1.834-1.833s-0.821-1.833-1.834-1.833
			c-0.234,0-0.456,0.047-0.661,0.128l-5.708-3.824c0.029-0.138,0.046-0.278,0.046-0.425c0-1.125-0.912-2.037-2.038-2.037
			c-0.017,0-0.033,0.004-0.05,0.006l-2.031-4.017c0.349-0.366,0.566-0.858,0.566-1.404c0-1.125-0.912-2.037-2.037-2.037
			c-0.634,0-1.192,0.295-1.565,0.749l-9.588-1.967c-0.01-0.344-0.077-0.672-0.201-0.974l10.381-10.43
			c0.477,0.38,1.073,0.616,1.731,0.616c0.587,0,1.13-0.184,1.581-0.492l5.301,5.242c-0.121,0.246-0.195,0.518-0.195,0.81
			c0,1.013,0.82,1.833,1.832,1.833c1.013,0,1.834-0.821,1.834-1.833c0-1.013-0.821-1.833-1.834-1.833
			c-0.299,0-0.578,0.078-0.828,0.206l-5.321-5.261c0.266-0.428,0.425-0.927,0.425-1.467c0-0.047-0.012-0.092-0.014-0.139
			l7.521-1.295C54.087,17.891,54.747,18.321,55.516,18.321z"/>
	</g>
	
		<circle fill="none" stroke="#237683" stroke-width="0.25" stroke-miterlimit="10" stroke-dasharray="1,2" cx="39.319" cy="31.477" r="13.54"/>
</g>
</svg>
